<?xml version="1.0" encoding="UTF-8" standalone="no"?>
<!-- Created with Inkscape (http://www.inkscape.org/) -->

<svg
   xmlns:dc="http://purl.org/dc/elements/1.1/"
   xmlns:cc="http://creativecommons.org/ns#"
   xmlns:rdf="http://www.w3.org/1999/02/22-rdf-syntax-ns#"
   xmlns:svg="http://www.w3.org/2000/svg"
   xmlns="http://www.w3.org/2000/svg"
   xmlns:xlink="http://www.w3.org/1999/xlink"
   xmlns:sodipodi="http://sodipodi.sourceforge.net/DTD/sodipodi-0.dtd"
   xmlns:inkscape="http://www.inkscape.org/namespaces/inkscape"
   width="256"
   height="256"
   id="svg16746"
   version="1.1"
   inkscape:version="0.47pre4 r22446"
   sodipodi:docname="Nouveau document 6">
  <defs
     id="defs16748">
    <inkscape:perspective
       sodipodi:type="inkscape:persp3d"
       inkscape:vp_x="0 : 526.18109 : 1"
       inkscape:vp_y="0 : 1000 : 0"
       inkscape:vp_z="744.09448 : 526.18109 : 1"
       inkscape:persp3d-origin="372.04724 : 350.78739 : 1"
       id="perspective16754" />
    <inkscape:perspective
       id="perspective16764"
       inkscape:persp3d-origin="0.5 : 0.33333333 : 1"
       inkscape:vp_z="1 : 0.5 : 1"
       inkscape:vp_y="0 : 1000 : 0"
       inkscape:vp_x="0 : 0.5 : 1"
       sodipodi:type="inkscape:persp3d" />
    <linearGradient
       inkscape:collect="always"
       xlink:href="#linearGradient16627"
       id="linearGradient16633"
       x1="24.502338"
       y1="538.53754"
       x2="28.104607"
       y2="528.67188"
       gradientUnits="userSpaceOnUse" />
    <linearGradient
       id="linearGradient16627">
      <stop
         style="stop-color:#8b160b;stop-opacity:1;"
         offset="0"
         id="stop16629" />
      <stop
         style="stop-color:#cd160b;stop-opacity:1;"
         offset="1"
         id="stop16631" />
    </linearGradient>
    <linearGradient
       inkscape:collect="always"
       xlink:href="#linearGradient16694"
       id="linearGradient16702"
       x1="21.51446"
       y1="549.97333"
       x2="27.394831"
       y2="554.12061"
       gradientUnits="userSpaceOnUse"
       gradientTransform="translate(2.2621745,-18.600102)" />
    <linearGradient
       id="linearGradient16694">
      <stop
         id="stop16696"
         offset="0"
         style="stop-color:#079d00;stop-opacity:1;" />
      <stop
         id="stop16698"
         offset="1"
         style="stop-color:#0f5300;stop-opacity:1;" />
    </linearGradient>
    <linearGradient
       inkscape:collect="always"
       xlink:href="#linearGradient16613"
       id="linearGradient16605"
       x1="33.162048"
       y1="536.64124"
       x2="28.736923"
       y2="541.52405"
       gradientUnits="userSpaceOnUse" />
    <linearGradient
       id="linearGradient16613">
      <stop
         style="stop-color:#bbbbbb;stop-opacity:1;"
         offset="0"
         id="stop16615" />
      <stop
         style="stop-color:#3f3f3f;stop-opacity:1;"
         offset="1"
         id="stop16617" />
    </linearGradient>
    <linearGradient
       inkscape:collect="always"
       xlink:href="#linearGradient2306"
       id="linearGradient15814"
       gradientUnits="userSpaceOnUse"
       gradientTransform="translate(-0.664239,0.438523)"
       x1="16.619902"
       y1="10.843064"
       x2="17.197886"
       y2="8.2625246" />
    <linearGradient
       id="linearGradient2306">
      <stop
         style="stop-color:#6d6d6d;stop-opacity:1;"
         offset="0"
         id="stop2308" />
      <stop
         style="stop-color:#ebebeb;stop-opacity:1;"
         offset="1"
         id="stop2310" />
    </linearGradient>
  </defs>
  <sodipodi:namedview
     id="base"
     pagecolor="#ffffff"
     bordercolor="#666666"
     borderopacity="1.0"
     inkscape:pageopacity="0.0"
     inkscape:pageshadow="2"
     inkscape:zoom="0.98994949"
     inkscape:cx="117.44499"
     inkscape:cy="92.222481"
     inkscape:document-units="px"
     inkscape:current-layer="layer1"
     showgrid="false"
     inkscape:window-width="749"
     inkscape:window-height="700"
     inkscape:window-x="411"
     inkscape:window-y="319"
     inkscape:window-maximized="0" />
  <metadata
     id="metadata16751">
    <rdf:RDF>
      <cc:Work
         rdf:about="">
        <dc:format>image/svg+xml</dc:format>
        <dc:type
           rdf:resource="http://purl.org/dc/dcmitype/StillImage" />
        <dc:title></dc:title>
      </cc:Work>
    </rdf:RDF>
  </metadata>
  <g
     inkscape:label="Calque 1"
     inkscape:groupmode="layer"
     id="layer1"
     transform="translate(0,-796.36218)">
    <g
       transform="matrix(11.510455,0,0,11.510455,-171.85617,-5211.2931)"
       id="g16721"
       inkscape:export-filename="/home/fred/projets/perroquet/data/gp_256.png"
       inkscape:export-xdpi="64.440002"
       inkscape:export-ydpi="64.440002">
      <g
         inkscape:export-ydpi="90"
         inkscape:export-xdpi="90"
         inkscape:export-filename="/home/yekcim/Bureau/head.png"
         transform="matrix(1.1187469,0,0,1.0541997,-233.09318,-21.731171)"
         id="g15387">
        <path
           sodipodi:nodetypes="ccc"
           id="path15389"
           d="m 233.70089,532.95832 c 12.48324,-20.79125 -13.83423,-14.19734 -11.53522,0.62932 1.12688,0.6138 11.79996,3.21473 11.53522,-0.62932 z"
           style="fill:#8b160b;fill-opacity:1;fill-rule:evenodd;stroke:none;display:inline" />
        <path
           sodipodi:nodetypes="cccc"
           id="path15391"
           d="m 229.74591,532.39778 c -0.21182,-0.36172 -0.40492,-0.64722 -0.52717,-1.39063 -2.14336,-17.36683 10.39731,-17.64855 8.93538,0.17809 -0.1281,0.9094 -0.39857,1.609 -1.36296,2.1311"
           style="fill:none;stroke:#333333;stroke-width:1.11265397;stroke-linecap:round;stroke-linejoin:round;stroke-miterlimit:4;stroke-opacity:0;stroke-dasharray:none;stroke-dashoffset:0;marker:none;visibility:visible;display:inline;overflow:visible;enable-background:accumulate" />
      </g>
      <path
         inkscape:export-ydpi="90"
         inkscape:export-xdpi="90"
         inkscape:export-filename="/home/yekcim/Bureau/head.png"
         sodipodi:nodetypes="ccc"
         id="path15393"
         d="m 15.558582,540.648 c -0.904011,-14.16705 20.291842,-22.41737 17.694953,-3.82195 -0.17997,0.95868 -4.135748,1.27026 -5.489718,4.14567"
         style="fill:url(#linearGradient16633);fill-opacity:1;fill-rule:evenodd;stroke:#6a140f;stroke-width:1.20000005;stroke-linecap:round;stroke-linejoin:round;stroke-miterlimit:4;stroke-opacity:1;stroke-dasharray:none;stroke-dashoffset:0;marker:none;visibility:visible;display:inline;overflow:visible;enable-background:accumulate" />
      <path
         sodipodi:nodetypes="ccc"
         id="path15818-4"
         d="m 31.412522,530.19632 c 0,0 0.34015,4.51904 -5.288882,8.3876 -5.010629,-5.47131 -1.415063,-10.15233 5.288882,-8.3876 z"
         style="fill:url(#linearGradient16702);fill-opacity:1;fill-rule:evenodd;stroke:none" />
      <path
         sodipodi:nodetypes="cccc"
         id="path15818"
         d="m 35.479987,535.70457 c 0,0 -3.80717,5.96432 -9.561879,2.48082 0.679923,-2.00778 0.992234,-3.48945 2.7046,-4.18036 2.700514,2.57814 4.569434,2.30123 6.857279,1.69954 z"
         style="fill:url(#linearGradient16605);fill-opacity:1;fill-rule:evenodd;stroke:#4e4e4e;stroke-width:0.58302933;stroke-linecap:round;stroke-linejoin:round;stroke-miterlimit:4;stroke-opacity:1;stroke-dasharray:none" />
      <g
         id="g15395"
         transform="matrix(1.4094674,-0.15517911,0.1983381,1.9331611,9.1066274,517.07355)">
        <path
           sodipodi:nodetypes="cccc"
           id="path15397"
           d="m 16.795624,14.261029 c 0,0 3.872761,-4.793608 -2.117793,-7.5097828 -1.191995,0.8638543 -1.758344,1.4356108 -2.36691,2.9922482 3.687557,0.9498466 3.948464,2.7538106 4.484703,4.5175346 z"
           style="fill:url(#linearGradient15814);fill-opacity:1;fill-rule:evenodd;stroke:#4e4e4e;stroke-width:0.52043176;stroke-linecap:round;stroke-linejoin:round;stroke-miterlimit:4;stroke-opacity:1;stroke-dasharray:none" />
      </g>
      <path
         style="fill:#4e4e4e;fill-opacity:1;fill-rule:evenodd;stroke:none;stroke-width:1;marker:none;visibility:visible;display:inline;overflow:visible;enable-background:accumulate"
         d="m 33.100337,533.71301 c 0.23136,0.0171 0.44694,0.17419 0.55063,0.34782 0.28936,0.48453 -0.18377,0.66262 -0.39144,0.41024 -0.14264,-0.17333 -0.38911,-0.20839 -0.53945,-0.33033 -0.1146,-0.0929 0.1163,-0.44721 0.38026,-0.42773 z"
         id="path15417"
         sodipodi:nodetypes="cssss" />
      <path
         id="path15405"
         d="m 29.114018,529.09505 c 0.09642,1.22786 0.948461,2.09455 1.90178,1.93457 0.953297,-0.15998 1.648684,-1.28634 1.552213,-2.51419 -0.09652,-1.22787 -0.948482,-2.09455 -1.901779,-1.93457 -0.953319,0.15997 -1.648706,1.28633 -1.552214,2.51419 z"
         style="fill:#ffffff;fill-opacity:1;fill-rule:nonzero;stroke:#0f0f0f;stroke-width:0;stroke-miterlimit:4;stroke-opacity:1" />
      <path
         id="path15407"
         d="m 24.482108,530.32321 c 0.369177,1.92453 1.789093,3.15434 3.16945,2.74509 1.380368,-0.40924 2.201041,-2.30334 1.831864,-4.22787 -0.369176,-1.92453 -1.789082,-3.15434 -3.16945,-2.74509 -1.380357,0.40924 -2.201041,2.30333 -1.831864,4.22787 z"
         style="fill:#ffffff;fill-opacity:1;fill-rule:nonzero;stroke:#0f0f0f;stroke-width:0;stroke-miterlimit:4;stroke-opacity:1" />
      <path
         transform="matrix(3.5076733,0,0,3.5073126,-28.869624,478.55196)"
         d="m 17.400617,14.475769 c 0,0.204994 -0.16618,0.371174 -0.371173,0.371174 -0.204994,0 -0.371174,-0.16618 -0.371174,-0.371174 0,-0.204993 0.16618,-0.371174 0.371174,-0.371174 0.204993,0 0.371173,0.166181 0.371173,0.371174 z"
         sodipodi:ry="0.37117356"
         sodipodi:rx="0.37117356"
         sodipodi:cy="14.475769"
         sodipodi:cx="17.029444"
         id="path15409"
         style="fill:#000000;fill-opacity:1;fill-rule:evenodd;stroke:none;stroke-width:3;marker:none;visibility:visible;display:inline;overflow:visible;enable-background:accumulate"
         sodipodi:type="arc" />
      <path
         sodipodi:type="arc"
         style="fill:#ffffff;fill-opacity:1;fill-rule:evenodd;stroke:none;stroke-width:0.80000001;marker:none;visibility:visible;display:inline;overflow:visible;enable-background:accumulate"
         id="path15411"
         sodipodi:cx="-106.93597"
         sodipodi:cy="9.5195885"
         sodipodi:rx="0.36451679"
         sodipodi:ry="0.36451679"
         d="m -106.57145,9.5195885 c 0,0.201317 -0.1632,0.3645168 -0.36452,0.3645168 -0.20131,0 -0.36451,-0.1631998 -0.36451,-0.3645168 0,-0.2013171 0.1632,-0.3645168 0.36451,-0.3645168 0.20132,0 0.36452,0.1631997 0.36452,0.3645168 z"
         transform="matrix(1.3479826,0,0,1.3478439,174.4355,516.10921)" />
      <path
         transform="matrix(3.5076733,0,0,3.5073126,-32.314372,479.80445)"
         d="m 17.400617,14.475769 c 0,0.204994 -0.16618,0.371174 -0.371173,0.371174 -0.204994,0 -0.371174,-0.16618 -0.371174,-0.371174 0,-0.204993 0.16618,-0.371174 0.371174,-0.371174 0.204993,0 0.371173,0.166181 0.371173,0.371174 z"
         sodipodi:ry="0.37117356"
         sodipodi:rx="0.37117356"
         sodipodi:cy="14.475769"
         sodipodi:cx="17.029444"
         id="path15413"
         style="fill:#000000;fill-opacity:1;fill-rule:evenodd;stroke:none;stroke-width:3;marker:none;visibility:visible;display:inline;overflow:visible;enable-background:accumulate"
         sodipodi:type="arc" />
      <path
         sodipodi:type="arc"
         style="fill:#ffffff;fill-opacity:1;fill-rule:evenodd;stroke:none;stroke-width:0.80000001;marker:none;visibility:visible;display:inline;overflow:visible;enable-background:accumulate"
         id="path15415"
         sodipodi:cx="-106.93597"
         sodipodi:cy="9.5195885"
         sodipodi:rx="0.36451679"
         sodipodi:ry="0.36451679"
         d="m -106.57145,9.5195885 c 0,0.201317 -0.1632,0.3645168 -0.36452,0.3645168 -0.20131,0 -0.36451,-0.1631998 -0.36451,-0.3645168 0,-0.2013171 0.1632,-0.3645168 0.36451,-0.3645168 0.20132,0 0.36452,0.1631997 0.36452,0.3645168 z"
         transform="matrix(1.3479826,0,0,1.3478439,171.07963,517.25061)" />
    </g>
  </g>
</svg>
